<?xml version="1.0" standalone="no"?>
<!DOCTYPE svg PUBLIC "-//W3C//DTD SVG 20010904//EN"
 "http://www.w3.org/TR/2001/REC-SVG-20010904/DTD/svg10.dtd">
<svg version="1.0" xmlns="http://www.w3.org/2000/svg"
 width="28.000000pt" height="28.000000pt" viewBox="0 0 28.000000 28.000000"
 preserveAspectRatio="xMidYMid meet">

<g transform="translate(0.000000,28.000000) scale(0.100000,-0.100000)"
fill="#000000" stroke="none">
<path d="M45 160 c2 -14 5 -33 5 -42 0 -30 19 -20 29 15 l9 32 7 -32 c10 -44
20 -41 33 7 5 23 6 40 1 40 -5 0 -9 -12 -10 -27 l-1 -28 -11 28 c-13 32 -31
31 -36 -4 -3 -23 -3 -23 -17 6 -12 26 -14 27 -9 5z"/>
<path d="M153 140 c0 -25 2 -35 4 -22 2 12 2 32 0 45 -2 12 -4 2 -4 -23z"/>
<path d="M180 173 c0 -5 5 -14 12 -21 9 -9 9 -15 0 -24 -7 -7 -12 -17 -12 -23
0 -5 7 -1 15 9 13 17 15 17 21 3 3 -10 10 -17 15 -17 5 0 4 9 -3 20 -10 16
-10 24 0 40 7 11 8 20 3 20 -5 0 -11 -6 -14 -12 -3 -10 -7 -10 -20 1 -10 7
-17 9 -17 4z"/>
</g>
</svg>
